<?xml version="1.0" encoding="UTF-8" standalone="no"?>
<svg
   xmlns:dc="http://purl.org/dc/elements/1.1/"
   xmlns:cc="http://creativecommons.org/ns#"
   xmlns:rdf="http://www.w3.org/1999/02/22-rdf-syntax-ns#"
   xmlns:svg="http://www.w3.org/2000/svg"
   xmlns="http://www.w3.org/2000/svg"
   xmlns:sodipodi="http://sodipodi.sourceforge.net/DTD/sodipodi-0.dtd"
   xmlns:inkscape="http://www.inkscape.org/namespaces/inkscape"
   version="1.0"
   width="500"
   height="500"
   viewBox="0 0 5000 5000"
   preserveAspectRatio="xMidYMid meet"
   id="svg933"
   sodipodi:docname="discordpy.svg"
   inkscape:version="1.0.1 (3bc2e813f5, 2020-09-07)">
  <metadata
     id="metadata939">
    <rdf:RDF>
      <cc:Work
         rdf:about="">
        <dc:format>image/svg+xml</dc:format>
        <dc:type
           rdf:resource="http://purl.org/dc/dcmitype/StillImage" />
        <dc:title></dc:title>
      </cc:Work>
    </rdf:RDF>
  </metadata>
  <defs
     id="defs937" />
  <sodipodi:namedview
     pagecolor="#ffffff"
     bordercolor="#666666"
     borderopacity="1"
     objecttolerance="10"
     gridtolerance="10"
     guidetolerance="10"
     inkscape:pageopacity="0"
     inkscape:pageshadow="2"
     inkscape:window-width="1990"
     inkscape:window-height="1080"
     id="namedview935"
     showgrid="false"
     fit-margin-top="0"
     fit-margin-left="0"
     fit-margin-right="0"
     fit-margin-bottom="0"
     inkscape:zoom="1.0012124"
     inkscape:cx="340.31775"
     inkscape:cy="269.02295"
     inkscape:window-x="0"
     inkscape:window-y="0"
     inkscape:window-maximized="0"
     inkscape:current-layer="svg933" />
  <g
     id="layer101"
     fill="#252525"
     stroke="none">
    <path
       d="M 0,2500 V 0 H 2500 5000 V 2500 5000 H 2500 0 Z"
       id="path887" />
  </g>
  <g
     id="layer102"
     fill="#346b9d"
     stroke="none">
    <path
       d="M 0,2500 V 0 H 2500 5000 V 2500 5000 H 2500 0 Z m 2830,2135 c 307,-48 607,-165 862,-335 513,-342 849,-868 945,-1481 24,-158 24,-480 0,-638 C 4488,1235 3765,512 2819,363 c -158,-24 -480,-24 -638,0 -317,50 -615,165 -873,337 -513,342 -849,868 -945,1481 -24,158 -24,480 0,638 122,777 631,1411 1361,1696 174,68 346,108 596,139 75,9 410,-3 510,-19 z"
       id="path890" />
    <path
       d="m 1522,3635 c -159,-29 -345,-109 -460,-197 -29,-23 -85,-75 -124,-117 l -71,-76 7,-174 c 3,-95 8,-176 10,-180 2,-3 7,-33 10,-66 31,-278 124,-631 247,-938 98,-246 117,-277 196,-329 165,-108 331,-180 503,-216 149,-32 204,-37 218,-19 11,13 -3,20 -100,52 -195,65 -468,205 -588,304 -38,31 -8,25 70,-14 218,-110 479,-183 765,-216 329,-37 586,-18 827,62 124,41 316,135 406,199 l 74,52 -4,246 c -4,227 -6,253 -28,315 -29,86 -80,158 -149,215 l -54,44 -29,-54 c -37,-68 -100,-133 -156,-160 -55,-26 -156,-22 -217,10 -77,39 -165,154 -165,215 0,16 -17,17 -223,17 h -223 l -17,-54 c -36,-115 -157,-206 -271,-206 -141,0 -246,89 -285,239 -17,69 -18,71 -80,112 -98,65 -169,174 -205,313 -15,56 -15,61 4,90 25,41 142,153 202,194 41,28 188,102 255,128 22,9 19,14 -63,117 l -87,107 -61,-1 c -33,0 -94,-7 -134,-14 z"
       id="path892" />
  </g>
  <g
     id="layer103"
     fill="#ffcc34"
     stroke="none">
    <path
       d="M 0,2500 V 0 h 1971 c 1573,0 1969,3 1963,13 -15,25 -435,567 -440,567 -3,0 -28,-12 -56,-26 -161,-82 -408,-158 -619,-191 -158,-24 -480,-24 -638,0 -317,50 -615,165 -873,337 -513,342 -849,868 -945,1481 -24,158 -24,480 0,638 82,521 347,999 735,1322 48,40 93,78 101,85 12,11 -38,76 -304,393 L 577,5000 H 289 0 Z"
       id="path895" />
    <path
       d="m 3265,3647 c -5,-8 -45,-58 -87,-110 -43,-52 -78,-97 -78,-99 0,-3 18,-10 41,-17 68,-21 184,-77 251,-122 65,-44 198,-169 198,-187 0,-6 -37,12 -82,39 -157,93 -399,183 -607,225 -224,45 -506,49 -728,10 -112,-20 -279,-77 -391,-133 -95,-49 -255,-161 -271,-192 -7,-12 -3,-34 14,-75 32,-79 67,-127 121,-166 l 45,-32 16,23 c 52,77 168,153 248,164 110,15 242,-76 286,-197 l 13,-38 h 233 c 215,0 233,1 233,18 0,27 56,116 91,146 60,51 109,69 184,70 59,0 78,-4 124,-29 29,-16 68,-47 87,-69 34,-39 74,-130 74,-165 0,-12 11,-23 29,-29 43,-15 133,-84 168,-129 41,-52 88,-146 109,-218 14,-48 18,-115 22,-342 l 4,-282 -53,-38 c -160,-115 -368,-225 -534,-282 -49,-18 -96,-34 -104,-36 -11,-4 -10,-10 5,-26 17,-19 26,-20 79,-14 101,11 236,42 325,75 114,42 284,131 352,185 52,41 59,51 122,195 190,432 295,871 321,1350 l 7,115 -55,66 c -139,168 -360,290 -600,333 -142,26 -201,29 -212,13 z"
       id="path897" />
  </g>
</svg>
